<svg width="48" height="44" viewBox="0 0 48 44" fill="none" xmlns="http://www.w3.org/2000/svg">
<g filter="url(#filter0_d_66_159)">
<path d="M35.6667 9.75059H34.3L31.4667 2.19083C31.2321 1.56748 30.8059 1.02884 30.2457 0.647571C29.6854 0.266296 29.0179 0.0607286 28.3333 0.0585938H25.6667C24.75 0.0585938 24 0.785494 24 1.67393C24 2.56236 24.75 3.28926 25.6667 3.28926H28.3333L30.7667 9.75059H22.75L22.15 8.13526H22.3C23.2167 8.13526 23.9667 7.40836 23.9667 6.51993C23.9667 5.63149 23.2167 4.90459 22.3 4.90459H17.3333C16.4167 4.90459 15.6667 5.63149 15.6667 6.51993C15.6667 7.40836 16.4167 8.13526 17.3333 8.13526H18.5833L21.6167 16.2119H20.5C19.7667 12.6097 16.65 9.94444 12.75 9.76675C8.08333 9.5406 4 13.3043 4 17.8273C4 22.3502 7.66667 25.9039 12.3333 25.9039C16.4333 25.9039 19.75 23.174 20.5 19.4426H27.5C28.2333 23.0448 31.35 25.7101 35.25 25.8878C39.9167 26.0978 44 22.3502 44 17.8111C44 13.3043 40.3333 9.75059 35.6667 9.75059ZM14 19.4426H17.0333C16.3333 21.4295 14.3667 22.8025 12 22.6571C9.51667 22.5117 7.45 20.4764 7.33333 18.0534C7.21667 15.2266 9.45 12.9813 12.3333 12.9813C14.55 12.9813 16.3667 14.322 17.0333 16.2119H14C13.0833 16.2119 12.3333 16.9388 12.3333 17.8273C12.3333 18.7157 13.0833 19.4426 14 19.4426ZM27.5 16.2119H25.1667L23.95 12.9813H29C28.2667 13.9182 27.7333 15.0004 27.5 16.2119ZM35.4667 22.6733C32.9 22.5763 30.7333 20.4603 30.6667 17.9565C30.6333 16.4058 31.3167 15.0489 32.4167 14.1443L33.45 16.8904C33.7667 17.7303 34.7167 18.1665 35.5833 17.8596C36.45 17.5527 36.9 16.6319 36.5833 15.7919L35.5333 12.9974L35.55 12.9813C36.2182 12.9592 36.8841 13.0686 37.5075 13.3028C38.1309 13.5371 38.6989 13.8914 39.1771 14.3443C39.6553 14.7972 40.0338 15.3393 40.2898 15.938C40.5458 16.5366 40.674 17.1793 40.6667 17.8273C40.6667 20.6056 38.3667 22.7702 35.4667 22.6733ZM22.3333 30.7499H15.6667L25.6667 35.5959V32.3653H32.3333L22.3333 27.5193V30.7499Z" fill="#FFBB00"/>
</g>
<defs>
<filter id="filter0_d_66_159" x="0" y="0.0585938" width="48" height="43.5374" filterUnits="userSpaceOnUse" color-interpolation-filters="sRGB">
<feFlood flood-opacity="0" result="BackgroundImageFix"/>
<feColorMatrix in="SourceAlpha" type="matrix" values="0 0 0 0 0 0 0 0 0 0 0 0 0 0 0 0 0 0 127 0" result="hardAlpha"/>
<feOffset dy="4"/>
<feGaussianBlur stdDeviation="2"/>
<feComposite in2="hardAlpha" operator="out"/>
<feColorMatrix type="matrix" values="0 0 0 0 0 0 0 0 0 0 0 0 0 0 0 0 0 0 0.25 0"/>
<feBlend mode="normal" in2="BackgroundImageFix" result="effect1_dropShadow_66_159"/>
<feBlend mode="normal" in="SourceGraphic" in2="effect1_dropShadow_66_159" result="shape"/>
</filter>
</defs>
</svg>
