<svg width="139" height="50" viewBox="0 0 139 50" fill="none" xmlns="http://www.w3.org/2000/svg">
<g clip-path="url(#clip0_76_209)">
<path d="M26.912 10.784L22.31 39.082H15.698L17.378 28.864H10.256L8.61 39.082H2L6.639 10.784H13.214L11.242 22.732H18.364L20.338 10.784H26.912ZM40.473 39.082L40.693 32.912H34.593L32.803 39.082H25.826L35.214 10.784H47.267L47.414 39.082H40.473ZM38.976 17.662L36.091 27.645H40.876L41.277 17.663L38.976 17.662ZM75.783 10.784L71.18 39.082H64.568L59.967 23.598L57.483 39.083H50.87L55.509 10.784H62.303L66.833 25.248L69.206 10.784H75.783ZM91.208 10.784C94.398 10.784 96.675 11.649 98.038 13.378C99.037 14.688 99.535 16.326 99.535 18.291C99.535 18.999 99.475 19.745 99.354 20.531L97.929 29.296C97.442 32.256 96.248 34.628 94.349 36.41C92.449 38.192 89.99 39.082 86.969 39.082H76.34L80.98 10.784H91.208ZM88.906 16.916H86.532L83.939 32.95H87.409C88.553 32.95 89.442 32.622 90.075 31.968C90.733 31.286 91.183 30.186 91.425 28.667L92.486 22.221C92.578 21.701 92.627 21.175 92.632 20.648C92.632 18.158 91.391 16.916 88.906 16.916ZM119.112 39.082H100.775L105.416 10.784H123.753L122.73 16.916H110.968L110.128 22.222H119.844L118.822 28.352H109.105L108.375 32.951H120.137L119.112 39.082ZM139.977 39.082H123.32L127.96 10.784H134.535L130.919 32.951H141L139.977 39.082ZM75.471 44.118H139.014L137.029 50H73.486L75.471 44.118ZM8.95 0H78.45L76.464 5.882H6.964L8.95 0Z" fill="#9C9C9C"/>
</g>
<defs>
<clipPath id="clip0_76_209">
<rect width="139" height="50" fill="white"/>
</clipPath>
</defs>
</svg>
