<svg width="16" height="12" viewBox="0 0 16 12" fill="none" xmlns="http://www.w3.org/2000/svg">
<path d="M12.6667 4.36364H12.12L10.9867 0.96C10.8928 0.679348 10.7224 0.436837 10.4983 0.265175C10.2742 0.0935142 10.0072 0.000961182 9.73333 0H8.66667C8.3 0 8 0.327273 8 0.727273C8 1.12727 8.3 1.45455 8.66667 1.45455H9.73333L10.7067 4.36364H7.5L7.26 3.63636H7.32C7.68667 3.63636 7.98667 3.30909 7.98667 2.90909C7.98667 2.50909 7.68667 2.18182 7.32 2.18182H5.33333C4.96667 2.18182 4.66667 2.50909 4.66667 2.90909C4.66667 3.30909 4.96667 3.63636 5.33333 3.63636H5.83333L7.04667 7.27273H6.6C6.30667 5.65091 5.06 4.45091 3.5 4.37091C1.63333 4.26909 0 5.96364 0 8C0 10.0364 1.46667 11.6364 3.33333 11.6364C4.97333 11.6364 6.3 10.4073 6.6 8.72727H9.4C9.69333 10.3491 10.94 11.5491 12.5 11.6291C14.3667 11.7236 16 10.0364 16 7.99273C16 5.96364 14.5333 4.36364 12.6667 4.36364ZM4 8.72727H5.21333C4.93333 9.62182 4.14667 10.24 3.2 10.1745C2.20667 10.1091 1.38 9.19273 1.33333 8.10182C1.28667 6.82909 2.18 5.81818 3.33333 5.81818C4.22 5.81818 4.94667 6.42182 5.21333 7.27273H4C3.63333 7.27273 3.33333 7.6 3.33333 8C3.33333 8.4 3.63333 8.72727 4 8.72727ZM9.4 7.27273H8.46667L7.98 5.81818H10C9.70667 6.24 9.49333 6.72727 9.4 7.27273ZM12.5867 10.1818C11.56 10.1382 10.6933 9.18545 10.6667 8.05818C10.6533 7.36 10.9267 6.74909 11.3667 6.34182L11.78 7.57818C11.9067 7.95636 12.2867 8.15273 12.6333 8.01455C12.98 7.87636 13.16 7.46182 13.0333 7.08364L12.6133 5.82545L12.62 5.81818C12.8873 5.80824 13.1537 5.85749 13.403 5.96297C13.6524 6.06844 13.8795 6.22795 14.0708 6.43186C14.2621 6.63577 14.4135 6.87985 14.5159 7.14937C14.6183 7.4189 14.6696 7.70826 14.6667 8C14.6667 9.25091 13.7467 10.2255 12.5867 10.1818Z" fill="#FFBB00"/>
</svg>
