<svg width="136" height="32" viewBox="0 0 136 32" fill="none" xmlns="http://www.w3.org/2000/svg">
<path d="M5.13273 12.9468C5.79265 11.9051 6.69699 11.0588 7.84574 10.4078C9.01894 9.75678 10.351 9.43127 11.8419 9.43127C13.5773 9.43127 15.1415 9.88698 16.5347 10.7984C17.9523 11.7098 19.0644 13.0119 19.871 14.7045C20.702 16.3711 21.1175 18.3111 21.1175 20.5246C21.1175 22.738 20.702 24.7041 19.871 26.4228C19.0644 28.1154 17.9523 29.4305 16.5347 30.3679C15.1415 31.3054 13.5773 31.7741 11.8419 31.7741C10.3266 31.7741 8.9945 31.4617 7.84574 30.8367C6.72143 30.1857 5.81709 29.3524 5.13273 28.3368V31.4226H0V2.51748H5.13273V12.9468ZM15.8748 20.5246C15.8748 19.2226 15.6182 18.1028 15.1049 17.1653C14.6161 16.2018 13.9561 15.4727 13.1251 14.9779C12.323 14.4844 11.4117 14.2282 10.4854 14.2358C9.55665 14.2358 8.67675 14.4962 7.84574 15.017C7.03917 15.5118 6.37925 16.2409 5.86598 17.2044C5.37714 18.1679 5.13273 19.3007 5.13273 20.6027C5.13273 21.9047 5.37714 23.0375 5.86598 24.001C6.37925 24.9645 7.03917 25.7067 7.84574 26.2275C8.67675 26.7223 9.55665 26.9696 10.4854 26.9696C11.4387 26.9696 12.3185 26.7092 13.1251 26.1884C13.9561 25.6676 14.6161 24.9255 15.1049 23.9619C15.6182 22.9984 15.8748 21.8527 15.8748 20.5246ZM27.4499 7.2048C26.5456 7.2048 25.7879 6.90533 25.1768 6.3064C24.5903 5.68142 24.297 4.91322 24.297 4.0018C24.297 3.09038 24.5903 2.3352 25.1768 1.73626C25.7879 1.11129 26.5456 0.798801 27.4499 0.798801C28.3543 0.798801 29.0997 1.11129 29.6863 1.73626C30.2974 2.3352 30.6029 3.09038 30.6029 4.0018C30.6029 4.91322 30.2974 5.68142 29.6863 6.3064C29.0997 6.90533 28.3543 7.2048 27.4499 7.2048ZM29.9796 9.78282V31.4226H24.8469V9.78282H29.9796ZM47.0765 31.4226L40.184 22.2042V31.4226H35.0512V2.51748H40.184V18.9621L47.0032 9.78282H53.6757L44.7301 20.6418L53.749 31.4226H47.0765ZM54.1228 20.6027C54.1228 18.3632 54.5505 16.4102 55.406 14.7436C56.2614 13.0509 57.4468 11.7489 58.9622 10.8375C60.4776 9.9 62.2129 9.43127 64.1683 9.43127C66.6858 9.43127 68.7633 10.1083 70.4009 11.4624C72.0629 12.7905 73.175 14.6654 73.7371 17.0872H68.2021C67.9089 16.1498 67.4078 15.4206 66.699 14.8998C66.0146 14.353 65.1592 14.0795 64.1326 14.0795C62.6661 14.0795 61.5052 14.6524 60.6497 15.7982C59.7943 16.918 59.3665 18.5195 59.3665 20.6027C59.3665 22.6599 59.7943 24.2614 60.6497 25.4072C61.5052 26.527 62.6661 27.0868 64.1326 27.0868C66.2102 27.0868 67.5667 26.0973 68.2021 24.1182H73.7382C73.176 26.4619 72.0639 28.3238 70.4019 29.7039C68.7399 31.0841 66.6623 31.7741 64.1693 31.7741C62.214 31.7741 60.4786 31.3184 58.9632 30.407C57.4599 29.4828 56.2283 28.1301 55.407 26.5009C54.5515 24.8083 54.1228 22.8422 54.1228 20.6027ZM81.6124 13.1421C82.2418 12.0283 83.1244 11.1013 84.1788 10.4469C85.2542 9.79584 86.4763 9.47033 87.845 9.47033V15.2123H86.4885C84.8754 15.2123 83.6533 15.6159 82.8223 16.4232C82.0157 17.2304 81.6124 18.6366 81.6124 20.6418V31.4226H76.4797V9.78282H81.6124V13.1421ZM103.583 28.3368C103.021 29.3263 102.105 30.1596 100.834 30.8367C99.5627 31.4877 98.194 31.8132 96.7275 31.8132C95.4565 31.8132 94.3078 31.5398 93.2812 30.9929C92.2547 30.4461 91.4481 29.6909 90.8615 28.7274C90.2749 27.7639 89.9816 26.6572 89.9816 25.4072C89.9816 23.4021 90.6782 21.7615 92.0714 20.4855C93.489 19.2095 95.6032 18.5715 98.414 18.5715H103.583C103.534 17.1914 103.156 16.0977 102.447 15.2904C101.762 14.4571 100.809 14.0405 99.5872 14.0405C98.5117 14.0405 97.6196 14.353 96.9108 14.9779C96.202 15.5769 95.7498 16.4232 95.5543 17.5169H90.4216C90.666 15.9545 91.1915 14.5613 91.998 13.3374C92.8218 12.0939 93.9332 11.0982 95.2243 10.4469C96.5686 9.74376 98.0718 9.39221 99.7338 9.39221C101.445 9.39221 102.985 9.7698 104.353 10.525C105.713 11.2464 106.846 12.3727 107.616 13.767C108.398 15.1732 108.789 16.8268 108.789 18.7278V31.4226H103.583V28.3368ZM98.2307 27.3993C99.0861 27.3993 99.9171 27.204 100.724 26.8134C101.555 26.4228 102.239 25.8369 102.777 25.0557C103.314 24.2744 103.583 23.35 103.583 22.2823V22.1261H98.7073C97.5341 22.1261 96.6542 22.3735 96.0676 22.8682C95.5054 23.363 95.2243 24.014 95.2243 24.8213C95.2243 25.6025 95.481 26.2275 95.9942 26.6962C96.532 27.1649 97.2774 27.3993 98.2307 27.3993ZM119.614 14.2748V31.4226H114.408V14.2748H112.098V9.78282H114.408V8.68912C114.408 6.03297 115.117 4.07992 116.534 2.82997C117.952 1.58002 120.091 0.994106 122.95 1.07223V5.68142C121.704 5.65538 120.836 5.87673 120.347 6.34546C119.858 6.81419 119.614 7.66051 119.614 8.88442V9.78282H126.284V4.43147H131.454V9.78282H136V14.2748H131.454V24.7432C131.454 25.4723 131.613 26.0061 131.93 26.3447C132.273 26.6572 132.835 26.8134 133.617 26.8134H136V31.4226H132.774C128.448 31.4226 126.284 29.1831 126.284 24.7041V14.2748H119.614Z" fill="white"/>
</svg>
