<svg width="38" height="36" viewBox="0 0 38 36" fill="none" xmlns="http://www.w3.org/2000/svg">
<path d="M19 11.3659C15.3166 11.3659 12.3333 14.2574 12.3333 17.8273C12.3333 21.3971 15.3166 24.2886 19 24.2886C22.6833 24.2886 25.6666 21.3971 25.6666 17.8273C25.6666 14.2574 22.6833 11.3659 19 11.3659ZM33.9 16.2119C33.5224 12.9362 32.0069 9.88231 29.6021 7.55163C27.1974 5.22096 24.0464 3.75207 20.6666 3.38618V1.67393C20.6666 0.785494 19.9166 0.0585938 19 0.0585938C18.0833 0.0585938 17.3333 0.785494 17.3333 1.67393V3.38618C13.9535 3.75207 10.8025 5.22096 8.39778 7.55163C5.99304 9.88231 4.47748 12.9362 4.09996 16.2119H2.33329C1.41663 16.2119 0.666626 16.9388 0.666626 17.8273C0.666626 18.7157 1.41663 19.4426 2.33329 19.4426H4.09996C4.47748 22.7183 5.99304 25.7722 8.39778 28.1029C10.8025 30.4336 13.9535 31.9025 17.3333 32.2683V33.9806C17.3333 34.869 18.0833 35.5959 19 35.5959C19.9166 35.5959 20.6666 34.869 20.6666 33.9806V32.2683C24.0464 31.9025 27.1974 30.4336 29.6021 28.1029C32.0069 25.7722 33.5224 22.7183 33.9 19.4426H35.6666C36.5833 19.4426 37.3333 18.7157 37.3333 17.8273C37.3333 16.9388 36.5833 16.2119 35.6666 16.2119H33.9ZM19 29.1346C12.55 29.1346 7.33329 24.0786 7.33329 17.8273C7.33329 11.5759 12.55 6.51993 19 6.51993C25.45 6.51993 30.6666 11.5759 30.6666 17.8273C30.6666 24.0786 25.45 29.1346 19 29.1346Z" fill="#FFBB00"/>
</svg>
